<svg xmlns="http://www.w3.org/2000/svg" xmlns:xlink="http://www.w3.org/1999/xlink" version="1.1" x="0px" y="0px" viewBox="0 0 100 100" enable-background="new 0 0 100 100" xml:space="preserve"><g><path d="M94.2,49.6l-3.2-2.2c-0.2-0.1-0.4-0.1-0.5,0c-0.2,0.1-0.3,0.3-0.3,0.4V49l-38.3,0V10.7H53c0.2,0,0.4-0.1,0.4-0.3   c0.1-0.2,0.1-0.4,0-0.5l-2.2-3.2c-0.2-0.3-0.6-0.3-0.8,0l-2.2,3.2c-0.1,0.2-0.1,0.4,0,0.5c0.1,0.2,0.3,0.3,0.4,0.3h1.2V49L7.7,49   c-0.6,0-1,0.4-1,1s0.4,1,1,1l42.1,0v42.1c0,0.6,0.4,1,1,1s1-0.4,1-1V51l38.3,0v1.2c0,0.2,0.1,0.4,0.3,0.4c0.1,0,0.2,0.1,0.2,0.1   c0.1,0,0.2,0,0.3-0.1l3.2-2.2c0.1-0.1,0.2-0.2,0.2-0.4S94.3,49.7,94.2,49.6z"/><circle cx="73.5" cy="41.1" r="1.7"/><path d="M64.2,31.1c1,0,1.7-0.8,1.7-1.7s-0.8-1.7-1.7-1.7c-1,0-1.7,0.8-1.7,1.7S63.2,31.1,64.2,31.1z M64.2,28.6   c0.4,0,0.7,0.3,0.7,0.7c0,0.4-0.3,0.7-0.7,0.7s-0.7-0.3-0.7-0.7C63.4,28.9,63.8,28.6,64.2,28.6z"/><path d="M38.7,68.8c-1,0-1.7,0.8-1.7,1.7s0.8,1.7,1.7,1.7s1.7-0.8,1.7-1.7S39.7,68.8,38.7,68.8z M38.7,71.2c-0.4,0-0.7-0.3-0.7-0.7   s0.3-0.7,0.7-0.7s0.7,0.3,0.7,0.7S39.1,71.2,38.7,71.2z"/><path d="M33.8,44.1c1,0,1.7-0.8,1.7-1.7s-0.8-1.7-1.7-1.7c-1,0-1.7,0.8-1.7,1.7S32.9,44.1,33.8,44.1z M33.8,41.6   c0.4,0,0.7,0.3,0.7,0.7c0,0.4-0.3,0.7-0.7,0.7s-0.7-0.3-0.7-0.7C33.1,41.9,33.4,41.6,33.8,41.6z"/><circle cx="44.5" cy="26.9" r="1.7"/><circle cx="39.4" cy="57.3" r="1.7"/><path d="M17.5,32.1c1,0,1.7-0.8,1.7-1.7s-0.8-1.7-1.7-1.7c-1,0-1.7,0.8-1.7,1.7S16.5,32.1,17.5,32.1z M17.5,29.6   c0.4,0,0.7,0.3,0.7,0.7c0,0.4-0.3,0.7-0.7,0.7s-0.7-0.3-0.7-0.7C16.8,29.9,17.1,29.6,17.5,29.6z"/><path d="M79.9,71.2c-1,0-1.7,0.8-1.7,1.7s0.8,1.7,1.7,1.7s1.7-0.8,1.7-1.7S80.8,71.2,79.9,71.2z M79.9,73.7c-0.4,0-0.7-0.3-0.7-0.7   c0-0.4,0.3-0.7,0.7-0.7s0.7,0.3,0.7,0.7C80.6,73.4,80.3,73.7,79.9,73.7z"/><path d="M31.4,70c-1,0-1.7,0.8-1.7,1.7s0.8,1.7,1.7,1.7s1.7-0.8,1.7-1.7S32.3,70,31.4,70z M31.4,72.5c-0.4,0-0.7-0.3-0.7-0.7   c0-0.4,0.3-0.7,0.7-0.7s0.7,0.3,0.7,0.7C32.1,72.1,31.8,72.5,31.4,72.5z"/><path d="M57.6,54.1c-1,0-1.7,0.8-1.7,1.7s0.8,1.7,1.7,1.7s1.7-0.8,1.7-1.7S58.6,54.1,57.6,54.1z M57.6,56.6c-0.4,0-0.7-0.3-0.7-0.7   c0-0.4,0.3-0.7,0.7-0.7s0.7,0.3,0.7,0.7C58.4,56.2,58,56.6,57.6,56.6z"/></g></svg>