<svg xmlns="http://www.w3.org/2000/svg" xmlns:xlink="http://www.w3.org/1999/xlink" version="1.1" x="0px" y="0px" viewBox="0 0 80.336 80.36" enable-background="new 0 0 80.336 80.336" xml:space="preserve"><g><g><path d="M75.068,0h-69.8C2.359,0,0,2.359,0,5.268v69.801c0,2.908,2.359,5.268,5.268,5.268h69.8c2.909,0,5.268-2.359,5.268-5.268    V5.268C80.336,2.359,77.978,0,75.068,0z M13.649,75.055H5.447V66.85h8.203V75.055z M13.649,59.663H5.447v-8.205h8.203V59.663z     M13.649,44.27H5.447v-8.204h8.203V44.27z M13.649,28.877H5.447v-8.202h8.203V28.877z M13.649,13.485H5.447V5.282h8.203V13.485z     M29.603,52.389V27.946l21.132,12.222L29.603,52.389z M75.053,75.055h-8.2V66.85h8.2V75.055z M75.053,59.663h-8.2v-8.205h8.2    V59.663z M75.053,44.27h-8.2v-8.204h8.2V44.27z M75.053,28.877h-8.2v-8.202h8.2V28.877z M75.053,13.485h-8.2V5.282h8.2V13.485z"/></g></g></svg>