<svg xmlns="http://www.w3.org/2000/svg" xmlns:xlink="http://www.w3.org/1999/xlink" version="1.1" x="0px" y="0px" viewBox="0 0 512 640" enable-background="new 0 0 512 512" xml:space="preserve"><g><path d="M340.4,143.5L302.9,106h-93.8l-37.5,37.5H106c-20.7,0-37.5,16.8-37.5,37.5v187.5c0,20.7,16.8,37.5,37.5,37.5h300   c20.7,0,37.5-16.8,37.5-37.5V181c0-20.7-16.8-37.5-37.5-37.5H340.4z M256,368.5c-51.8,0-93.8-42-93.8-93.8s42-93.8,93.8-93.8   s93.8,42,93.8,93.8S307.8,368.5,256,368.5z"/><circle cx="256" cy="274.8" r="56.3"/></g><text x="0" y="527" fill="#000000" font-size="5px" font-weight="bold" font-family="'Helvetica Neue', Helvetica, Arial-Unicode, Arial, Sans-serif">Created by Creative Stall</text><text x="0" y="532" fill="#000000" font-size="5px" font-weight="bold" font-family="'Helvetica Neue', Helvetica, Arial-Unicode, Arial, Sans-serif">from the Noun Project</text></svg>