<svg xmlns="http://www.w3.org/2000/svg" xmlns:xlink="http://www.w3.org/1999/xlink" version="1.1" x="0px" y="0px" viewBox="0 0 100 100" enable-background="new 0 0 100 100" xml:space="preserve"><path d="M87.009,21.802c0-2.434-1.571-4.502-3.75-5.259c-4.996-2.291-10.988-4.851-12.821-4.851H29.021  c-1.828,0-7.79,2.546-12.774,4.833c-2.204,0.743-3.798,2.825-3.798,5.277v4.666c0,1.246,0.417,2.394,1.11,3.323  c-0.694,0.929-1.11,2.077-1.11,3.323v4.666c0,1.244,0.415,2.39,1.106,3.318c-0.692,0.928-1.106,2.074-1.106,3.318v4.665  c0,1.246,0.417,2.395,1.11,3.323c-0.694,0.929-1.11,2.077-1.11,3.323v4.665c0,1.243,0.414,2.389,1.105,3.316  c-0.691,0.928-1.105,2.073-1.105,3.316v4.665c0,1.246,0.417,2.395,1.11,3.323c-0.694,0.929-1.11,2.077-1.11,3.323v4.665  c0,3.072,2.5,5.571,5.572,5.571h63.416c3.072,0,5.571-2.499,5.571-5.571v-4.665c0-1.246-0.416-2.395-1.11-3.323  c0.694-0.929,1.11-2.077,1.11-3.323v-4.665c0-1.243-0.414-2.389-1.104-3.316c0.69-0.928,1.104-2.073,1.104-3.316v-4.665  c0-1.246-0.416-2.395-1.11-3.323c0.694-0.929,1.11-2.077,1.11-3.323v-4.665c0-1.244-0.415-2.39-1.106-3.318  c0.691-0.928,1.106-2.074,1.106-3.318v-4.666c0-1.246-0.416-2.395-1.11-3.323c0.694-0.929,1.11-2.077,1.11-3.323V21.802z   M82.509,37.78c0,0.581-0.467,1.05-1.044,1.065c-0.01,0-0.019-0.001-0.027-0.001H18.021c-0.009,0-0.018,0.001-0.027,0.001  c-0.578-0.015-1.045-0.485-1.045-1.065v-4.666c0-0.591,0.481-1.071,1.072-1.071h63.416c0.591,0,1.071,0.48,1.071,1.071V37.78z   M82.509,44.416v4.665c0,0.591-0.48,1.071-1.071,1.071H18.021c-0.591,0-1.072-0.48-1.072-1.071v-4.665  c0-0.582,0.467-1.052,1.045-1.067c0.009,0,0.018,0.001,0.027,0.001h63.416c0.009,0,0.018-0.001,0.027-0.001  C82.042,43.364,82.509,43.834,82.509,44.416z M82.509,60.393c0,0.576-0.459,1.039-1.028,1.063c-0.015,0-0.028-0.002-0.043-0.002  H18.021c-0.014,0-0.028,0.002-0.042,0.002c-0.57-0.023-1.029-0.486-1.029-1.063v-4.665c0-0.591,0.481-1.071,1.072-1.071h63.416  c0.591,0,1.071,0.48,1.071,1.071V60.393z M82.509,67.025v4.665c0,0.591-0.48,1.071-1.071,1.071H18.021  c-0.591,0-1.072-0.48-1.072-1.071v-4.665c0-0.576,0.459-1.04,1.029-1.063c0.014,0,0.028,0.002,0.042,0.002h63.416  c0.015,0,0.028-0.002,0.042-0.002C82.05,65.985,82.509,66.449,82.509,67.025z M82.509,21.802v4.666c0,0.59-0.48,1.071-1.071,1.071  H18.021c-0.591,0-1.072-0.48-1.072-1.071v-4.666c0-0.591,0.481-1.071,1.072-1.071h63.416C82.028,20.731,82.509,21.211,82.509,21.802  z M82.509,83.002c0,0.591-0.48,1.071-1.071,1.071H18.021c-0.591,0-1.072-0.48-1.072-1.071v-4.665c0-0.591,0.481-1.071,1.072-1.071  h63.416c0.591,0,1.071,0.48,1.071,1.071V83.002z"/><path d="M79,22.885H68.625c-0.69,0-1.25,0.56-1.25,1.25s0.56,1.25,1.25,1.25H79c0.69,0,1.25-0.56,1.25-1.25  S79.69,22.885,79,22.885z"/><path d="M79,34.197H68.625c-0.69,0-1.25,0.56-1.25,1.25s0.56,1.25,1.25,1.25H79c0.69,0,1.25-0.56,1.25-1.25  S79.69,34.197,79,34.197z"/><path d="M79,45.498H68.625c-0.69,0-1.25,0.56-1.25,1.25s0.56,1.25,1.25,1.25H79c0.69,0,1.25-0.56,1.25-1.25  S79.69,45.498,79,45.498z"/><path d="M79,56.811H68.625c-0.69,0-1.25,0.56-1.25,1.25s0.56,1.25,1.25,1.25H79c0.69,0,1.25-0.56,1.25-1.25  S79.69,56.811,79,56.811z"/><path d="M79,68.107H68.625c-0.69,0-1.25,0.56-1.25,1.25s0.56,1.25,1.25,1.25H79c0.69,0,1.25-0.56,1.25-1.25  S79.69,68.107,79,68.107z"/><path d="M79,79.42H68.625c-0.69,0-1.25,0.56-1.25,1.25s0.56,1.25,1.25,1.25H79c0.69,0,1.25-0.56,1.25-1.25  S79.69,79.42,79,79.42z"/></svg>