<svg xmlns="http://www.w3.org/2000/svg" xmlns:xlink="http://www.w3.org/1999/xlink" version="1.1" x="0px" y="0px" viewBox="0 0 100 125" enable-background="new 0 0 100 100" xml:space="preserve"><g><path d="M55.9,44.8H44c-0.7,0-1.3,0.6-1.3,1.3v7c0,0.7,0.6,1.3,1.3,1.3h11.9c0.7,0,1.3-0.6,1.3-1.3v-7   C57.2,45.4,56.6,44.8,55.9,44.8z"/><path d="M40.1,37.2c0-0.2-0.2-0.4-0.4-0.4h-2.1v0.8h1.7v22.7h-1.7V61h2.1c0.2,0,0.4-0.2,0.4-0.4V50h1.8v-0.8h-1.8V37.2z"/><path d="M18.2,52H6.3c-0.4,0-0.8,0.4-0.8,0.8v4.9c0,0.4,0.4,0.8,0.8,0.8h11.9c0.4,0,0.8-0.4,0.8-0.8v-4.9C19,52.3,18.6,52,18.2,52z    M18,57.5H6.5V53H18V57.5z"/><path d="M18.2,63.2H6.3c-0.4,0-0.8,0.4-0.8,0.8v4.9c0,0.4,0.4,0.8,0.8,0.8h11.9c0.4,0,0.8-0.4,0.8-0.8V64   C19,63.6,18.6,63.2,18.2,63.2z M18,68.7H6.5v-4.5H18V68.7z"/><path d="M21.9,31.7c0-0.2-0.2-0.4-0.4-0.4h-2.1v0.8h1.7v10.5h-1.7v0.8h2.1c0.2,0,0.4-0.2,0.4-0.4v-5.2h1.7v-0.8h-1.7V31.7z"/><path d="M18.2,39.7H6.3c-0.4,0-0.8,0.4-0.8,0.8v4.9c0,0.4,0.4,0.8,0.8,0.8h11.9c0.4,0,0.8-0.4,0.8-0.8v-4.9   C19,40,18.6,39.7,18.2,39.7z M18,45.2H6.5v-4.5H18V45.2z"/><path d="M18.2,28.4H6.3c-0.4,0-0.8,0.4-0.8,0.8v4.9c0,0.4,0.4,0.8,0.8,0.8h11.9c0.4,0,0.8-0.4,0.8-0.8v-4.9   C19,28.8,18.6,28.4,18.2,28.4z M18,33.9H6.5v-4.5H18V33.9z"/><path d="M36.5,34.1H24.6c-0.4,0-0.8,0.4-0.8,0.8v4.9c0,0.4,0.4,0.8,0.8,0.8h11.9c0.4,0,0.8-0.4,0.8-0.8v-4.9   C37.3,34.4,37,34.1,36.5,34.1z M36.3,39.6H24.8v-4.5h11.5V39.6z"/><path d="M36.5,57.4H24.6c-0.4,0-0.8,0.4-0.8,0.8v4.9c0,0.4,0.4,0.8,0.8,0.8h11.9c0.4,0,0.8-0.4,0.8-0.8v-4.9   C37.3,57.7,37,57.4,36.5,57.4z M36.3,62.9H24.8v-4.5h11.5V62.9z"/><polygon points="21.9,55.2 21.9,54.9 21.5,54.9 19.4,54.9 19.4,55.6 21.1,55.6 21.1,66.1 19.4,66.1 19.4,66.8 21.5,66.8 21.9,66.8    21.9,66.5 21.9,61.2 23.6,61.2 23.6,60.5 21.9,60.5  "/><path d="M59.8,37.2v12.1H58V50h1.8v10.6c0,0.2,0.2,0.4,0.4,0.4h2.1v-0.8h-1.7V37.5h1.7v-0.8h-2.1C60,36.8,59.8,36.9,59.8,37.2z"/><polygon points="78.1,54.9 78.1,55.2 78.1,60.5 76.4,60.5 76.4,61.2 78.1,61.2 78.1,66.5 78.1,66.8 78.5,66.8 80.6,66.8 80.6,66.1    78.9,66.1 78.9,55.6 80.6,55.6 80.6,54.9 78.5,54.9  "/><path d="M93.7,52H81.8c-0.4,0-0.8,0.4-0.8,0.8v4.9c0,0.4,0.4,0.8,0.8,0.8h11.9c0.4,0,0.8-0.4,0.8-0.8v-4.9   C94.5,52.3,94.1,52,93.7,52z M93.5,57.5H82V53h11.5V57.5z"/><path d="M93.7,63.2H81.8c-0.4,0-0.8,0.4-0.8,0.8v4.9c0,0.4,0.4,0.8,0.8,0.8h11.9c0.4,0,0.8-0.4,0.8-0.8V64   C94.5,63.6,94.1,63.2,93.7,63.2z M93.5,68.7H82v-4.5h11.5V68.7z"/><path d="M78.1,31.7v5.2h-1.7v0.8h1.7v5.2c0,0.2,0.2,0.4,0.4,0.4h2.1v-0.8h-1.7V32.1h1.7v-0.8h-2.1C78.3,31.3,78.1,31.5,78.1,31.7z"/><path d="M93.7,39.7H81.8c-0.4,0-0.8,0.4-0.8,0.8v4.9c0,0.4,0.4,0.8,0.8,0.8h11.9c0.4,0,0.8-0.4,0.8-0.8v-4.9   C94.5,40,94.1,39.7,93.7,39.7z M93.5,45.2H82v-4.5h11.5V45.2z"/><path d="M93.7,28.4H81.8c-0.4,0-0.8,0.4-0.8,0.8v4.9c0,0.4,0.4,0.8,0.8,0.8h11.9c0.4,0,0.8-0.4,0.8-0.8v-4.9   C94.5,28.8,94.1,28.4,93.7,28.4z M93.5,33.9H82v-4.5h11.5V33.9z"/><path d="M75.3,34.1H63.5c-0.4,0-0.8,0.4-0.8,0.8v4.9c0,0.4,0.4,0.8,0.8,0.8h11.9c0.4,0,0.8-0.4,0.8-0.8v-4.9   C76.1,34.4,75.8,34.1,75.3,34.1z M75.1,39.6H63.7v-4.5h11.5V39.6z"/><path d="M75.3,57.4H63.5c-0.4,0-0.8,0.4-0.8,0.8v4.9c0,0.4,0.4,0.8,0.8,0.8h11.9c0.4,0,0.8-0.4,0.8-0.8v-4.9   C76.1,57.7,75.8,57.4,75.3,57.4z M75.1,62.9H63.7v-4.5h11.5V62.9z"/></g><text x="0" y="115" fill="#000000" font-size="5px" font-weight="bold" font-family="'Helvetica Neue', Helvetica, Arial-Unicode, Arial, Sans-serif">Created by Meaghan Hendricks</text><text x="0" y="120" fill="#000000" font-size="5px" font-weight="bold" font-family="'Helvetica Neue', Helvetica, Arial-Unicode, Arial, Sans-serif">from the Noun Project</text></svg>