<svg xmlns="http://www.w3.org/2000/svg" xmlns:xlink="http://www.w3.org/1999/xlink" version="1.1" x="0px" y="0px" viewBox="0 0 100 100" enable-background="new 0 0 100 100" xml:space="preserve"><path fill-rule="evenodd" clip-rule="evenodd" d="M50,12.468v1.276c1.749-0.618,3-2.284,3-4.244C53,7.016,50.984,5,48.5,5  S44,7.016,44,9.5c0,1.96,1.254,3.625,3,4.244v-1.276c0-0.828,0.671-1.5,1.5-1.5S50,11.64,50,12.468L50,12.468z M45.79,47.354  L48.5,32l2.71,15.354c-0.864-0.23-1.772-0.354-2.71-0.354S46.654,47.124,45.79,47.354L45.79,47.354z M54.646,48.987L62,44  l-4.986,7.354C56.354,50.445,55.555,49.646,54.646,48.987L54.646,48.987z M58.646,54.792L74,57.5l-15.354,2.71  C58.877,59.345,59,58.438,59,57.5C59,56.563,58.877,55.654,58.646,54.792L58.646,54.792z M51.21,67.646L48.5,83l-2.71-15.354  C46.654,67.877,47.563,68,48.5,68S50.346,67.877,51.21,67.646L51.21,67.646z M42.354,66.014L35,71l4.986-7.354  C40.646,64.556,41.445,65.354,42.354,66.014L42.354,66.014z M38.354,60.21L23,57.5l15.354-2.708C38.123,55.654,38,56.563,38,57.5  C38,58.438,38.123,59.346,38.354,60.21L38.354,60.21z M52.584,55.604c0.771,1.664,0.472,3.705-0.902,5.077  c-1.374,1.374-3.413,1.675-5.077,0.902l19.928,13.948L52.584,55.604L52.584,55.604z M44.419,59.396  c-0.773-1.664-0.475-3.705,0.899-5.078s3.413-1.674,5.077-0.9L30.468,39.47L44.419,59.396L44.419,59.396z M68.653,37.349  c-0.586-0.586-0.586-1.537,0-2.123s1.535-0.586,2.121,0s0.586,1.537,0,2.123C70.188,37.933,69.239,37.933,68.653,37.349  L68.653,37.349z M26.226,79.774c-0.586-0.586-0.586-1.535,0-2.121c0.586-0.588,1.538-0.588,2.121,0c0.586,0.586,0.586,1.535,0,2.121  C27.764,80.358,26.812,80.358,26.226,79.774L26.226,79.774z M68.653,77.653c0.586-0.588,1.535-0.588,2.121,0  c0.586,0.586,0.586,1.535,0,2.121c-0.586,0.584-1.535,0.584-2.121,0C68.067,79.188,68.067,78.239,68.653,77.653L68.653,77.653z   M26.226,35.226c0.586-0.586,1.538-0.586,2.121,0c0.586,0.586,0.586,1.537,0,2.123c-0.583,0.584-1.535,0.584-2.121,0  C25.64,36.763,25.64,35.812,26.226,35.226L26.226,35.226z M77,57.5c0-0.827,0.671-1.5,1.5-1.5s1.5,0.673,1.5,1.5  c0,0.829-0.671,1.5-1.5,1.5S77,58.329,77,57.5L77,57.5z M17,57.5c0-0.827,0.671-1.5,1.5-1.5s1.5,0.673,1.5,1.5  c0,0.829-0.671,1.5-1.5,1.5S17,58.329,17,57.5L17,57.5z M48.5,86c0.829,0,1.5,0.673,1.5,1.5S49.329,89,48.5,89S47,88.327,47,87.5  S47.671,86,48.5,86L48.5,86z M48.5,26c0.829,0,1.5,0.672,1.5,1.5c0,0.829-0.671,1.5-1.5,1.5S47,28.329,47,27.5  C47,26.672,47.671,26,48.5,26L48.5,26z M50,20.034c-0.003,0.826-0.674,1.496-1.5,1.496s-1.497-0.669-1.5-1.496  C26.984,20.822,11,37.292,11,57.5C11,78.21,27.79,95,48.5,95S86,78.21,86,57.5C86,37.292,70.016,20.822,50,20.034L50,20.034z   M50,16.851v0.18C71.671,17.82,89,35.636,89,57.5C89,79.868,70.868,98,48.5,98S8,79.868,8,57.5c0-21.864,17.326-39.68,39-40.469  v-0.18c-3.425-0.696-6-3.722-6-7.351C41,5.359,44.357,2,48.5,2S56,5.359,56,9.5C56,13.128,53.422,16.155,50,16.851z"/></svg>